<svg
  xmlns="http://www.w3.org/2000/svg"
  width="287"
  height="287"
  style="width: 100%; height: 100%"
  viewBox="0 0 287 287"
>
  <path
    fill="#fff"
    d="m256.525 116.014-10.96 26.08c-.42 1-.42 2.14 0 3.13l10.98 26.11c.72 1.7.19 3.67-1.29 4.8l-22.58 17.11c-.86.65-1.43 1.64-1.56 2.71l-3.53 28.1c-.24 1.83-1.67 3.29-3.51 3.52l-28.1 3.54c-1.09.14-2.06.71-2.71 1.57l-17.14 22.54a4.04 4.04 0 0 1-4.78 1.28l-26.11-10.95c-1-.42-2.14-.42-3.13 0l-26.11 10.98c-1.7.72-3.67.19-4.8-1.29l-17.11-22.58a3.98 3.98 0 0 0-2.71-1.56l-28.1-3.53c-1.83-.24-3.29-1.67-3.52-3.51l-3.54-28.1a4.06 4.06 0 0 0-1.56-2.71l-22.57-17.13a4.055 4.055 0 0 1-1.28-4.79l10.95-26.11c.42-.99.42-2.14 0-3.12l-10.98-26.12c-.72-1.7-.19-3.67 1.29-4.79l22.58-17.11c.86-.65 1.43-1.64 1.56-2.71l3.53-28.11c.24-1.82 1.67-3.29 3.51-3.51l28.1-3.55c1.09-.13 2.06-.7 2.71-1.56l17.15-22.57a4.055 4.055 0 0 1 4.79-1.28l26.11 10.95c.99.42 2.14.42 3.13 0l26.11-10.98c1.7-.72 3.67-.19 4.79 1.29l17.11 22.58c.65.86 1.64 1.43 2.71 1.56l28.13 3.52c1.82.24 3.26 1.66 3.51 3.49l3.83 28.6c.14 1.09.7 2.06 1.58 2.71l22.22 16.67a4.016 4.016 0 0 1 1.29 4.8z"
  />
  <path
    fill="#fff"
    d="m245.445 118.714-9.89 23.53c-.37.89-.38 1.93.01 2.82l9.9 23.54c.65 1.54.16 3.32-1.16 4.32l-20.36 15.43c-.79.59-1.3 1.47-1.41 2.45l-3.19 25.35a3.64 3.64 0 0 1-3.16 3.16l-25.33 3.2c-.98.13-1.86.63-2.45 1.4l-15.45 20.33a3.65 3.65 0 0 1-4.32 1.16l-23.55-9.88c-.9-.38-1.93-.39-2.82 0l-23.54 9.9c-1.54.66-3.33.17-4.32-1.15l-15.43-20.36c-.59-.79-1.48-1.3-2.45-1.42l-25.35-3.18a3.64 3.64 0 0 1-3.16-3.17l-3.2-25.33c-.13-.98-.63-1.86-1.4-2.44l-20.33-15.46a3.64 3.64 0 0 1-1.16-4.32l9.88-23.55c.38-.89.38-1.93-.01-2.82l-9.89-23.53a3.624 3.624 0 0 1 1.15-4.32l20.36-15.44c.79-.58 1.3-1.47 1.41-2.45l3.19-25.35a3.64 3.64 0 0 1 3.16-3.16l25.34-3.19c.98-.13 1.86-.63 2.44-1.41l15.46-20.33a3.64 3.64 0 0 1 4.31-1.16l23.56 9.88c.89.38 1.93.39 2.81 0l23.54-9.9a3.64 3.64 0 0 1 4.32 1.15l15.43 20.36c.59.8 1.48 1.31 2.45 1.42l25.37 3.18c1.64.2 2.94 1.5 3.16 3.14l3.45 25.8c.13.98.65 1.85 1.43 2.43l20.04 15.05a3.61 3.61 0 0 1 1.16 4.34z"
  />
  <path
    fill="#002b11"
    d="M171.255 246.644c-.99.26-2.06.22-3.05-.2l-23.55-9.88c-.64-.27-1.37-.27-2 .01l-23.54 9.9c-1.99.81-4.28.22-5.58-1.51l-15.43-20.36c-.42-.55-1.06-.9-1.75-1l-25.35-3.19a4.7 4.7 0 0 1-4.09-4.08l-3.2-25.34c-.09-.67-.44-1.31-.99-1.73l-20.33-15.46a4.684 4.684 0 0 1-1.49-5.57l9.88-23.55c.26-.65.27-1.37-.01-2l-9.9-23.54a4.7 4.7 0 0 1 1.5-5.58l20.36-15.43c.55-.42.91-1.06 1.01-1.75l3.19-25.35a4.68 4.68 0 0 1 4.08-4.09l25.33-3.2c.68-.07 1.31-.44 1.74-.99l15.46-20.33c1.3-1.72 3.6-2.34 5.56-1.5l23.56 9.88c.64.27 1.37.27 2-.01l23.54-9.89c1.98-.84 4.28-.22 5.58 1.5l15.43 20.36c.41.55 1.06.9 1.75 1.01l25.36 3.18c2.13.27 3.81 1.93 4.09 4.06l3.45 25.79c.1.68.46 1.31 1.02 1.73l20.04 15.05c1.74 1.3 2.36 3.6 1.5 5.59l-9.88 23.53c-.27.65-.27 1.38 0 2.01l9.9 23.54c.84 1.97.22 4.28-1.5 5.58l-20.36 15.43c-.55.41-.9 1.06-1.01 1.74l-3.18 25.35a4.69 4.69 0 0 1-4.08 4.09l-25.34 3.2c-.68.07-1.31.44-1.74 1l-15.45 20.33c-.65.86-1.56 1.43-2.54 1.69zm-28.81-12.26c1-.27 2.08-.21 3.04.19l23.56 9.88c1.09.46 2.34.12 3.06-.82l15.46-20.33c.76-1 1.91-1.66 3.16-1.82l25.34-3.19c1.17-.14 2.09-1.07 2.24-2.26l3.18-25.35c.15-1.25.84-2.4 1.84-3.17l20.36-15.44a2.61 2.61 0 0 0 .83-3.06l-9.9-23.54a4.8 4.8 0 0 1-.01-3.66l9.89-23.53c.45-1.09.11-2.36-.83-3.08l-20.05-15.05a4.77 4.77 0 0 1-1.83-3.14l-3.45-25.78a2.6 2.6 0 0 0-2.24-2.22l-25.37-3.18c-1.25-.15-2.41-.83-3.18-1.83l-15.44-20.36a2.61 2.61 0 0 0-3.06-.83l-23.54 9.9c-1.15.48-2.49.49-3.65.01l-23.56-9.88a2.58 2.58 0 0 0-3.06.82l-15.45 20.33c-.77 1-1.92 1.66-3.17 1.82l-25.34 3.2c-1.17.13-2.09 1.06-2.23 2.25l-3.19 25.35c-.15 1.25-.83 2.4-1.84 3.18l-20.36 15.43a2.61 2.61 0 0 0-.83 3.06l9.9 23.54c.49 1.17.49 2.49.01 3.66l-9.88 23.55c-.46 1.09-.12 2.34.82 3.06l20.33 15.46c1 .77 1.66 1.91 1.82 3.17l3.2 25.33c.14 1.18 1.07 2.09 2.25 2.24l25.35 3.19c1.25.15 2.4.83 3.18 1.83l15.43 20.36c.72.95 1.98 1.3 3.07.83l23.54-9.9c.2-.07.4-.15.6-.2z"
  />
  <path
    fill="#b2ff1a"
    d="m185.205 195.194-51.41 13.77c-1.6.43-2.96 2.6-2.35 4.84l.36 1.38 57.88-15.51-.37-1.38c-.58-2.18-2.43-3.56-4.11-3.1m-40.48-106.65-5.59 9.67 9.68 5.59 5.58-9.68z"
  />
  <path
    fill="#002b11"
    d="M185.265 79.414a6.16 6.16 0 0 0-5.03-.83l-9.35 2.5c-.82-5.61-1.42-9.15-1.41-9.22l-.21-1.16-42.16 11.23-42.08 11.34.41 1.11s1.29 3.42 3.38 8.69l-9.35 2.51a6.14 6.14 0 0 0-3.93 3.23c-.79 1.6-.84 3.44-.14 5.08 1.1 2.64 2.75 6.47 5.08 11.82 9.19 21.06 26.37 17.67 26.54 17.65l.94-.21c7.1 9.59 16.83 16.63 30.93 15.96 1.61 2.96 6.12 12.92-.21 22.5l-6.02 1.62c-3.12.84-4.95 4.21-4.07 7.5l4.37 16.3c-2.72.95-4.37 4.25-3.55 7.31l.92 3.44 61.99-16.61-.92-3.44c-.89-3.3-3.91-5.36-6.72-4.61l-4.36-16.25c-.89-3.31-4.15-5.3-7.27-4.46l-6.03 1.61c-10.27-5.13-11.36-16.03-11.42-19.38 12.54-6.47 17.44-17.43 18.8-29.3l.91-.28c.17-.05 16.73-5.72 14.16-28.56-.64-5.77-1.14-9.93-1.5-12.77a6.17 6.17 0 0 0-2.66-4.33zm-95.72 44.06c-2.16-4.97-3.48-8.05-4.17-9.74l6.97-1.86c1.52 3.71 3.21 7.79 5.04 12.06 1.46 3.4 3.07 6.87 4.88 10.24-3.34-.28-8.98-2.11-12.72-10.7m95.66 71.72c1.68-.46 3.53.94 4.11 3.1l.37 1.38-57.88 15.51-.36-1.38c-.61-2.26.75-4.41 2.36-4.84zm-21.17-20.37-22.44 6.01c4.7-9.01 1.38-18.1-.47-21.88 2-.2 4.05-.53 6.2-1.04l.25-.07c2.12-.63 4.08-1.38 5.91-2.2.28 4.2 1.96 13.73 10.53 19.18zm-17.02-19.05-.2.05c-26.75 6.4-39.01-12.96-47.48-32.74-1.77-4.13-3.43-8.12-4.91-11.75l36.36-9.74-.55-2.06-36.63 9.82c-2.84-7-4.93-12.41-5.79-14.62l39.88-10.75 39.84-10.61c.37 2.34 1.27 8.09 2.32 15.55l-7.17 1.92.55 2.05 6.9-1.85c.54 3.89 1.09 8.17 1.62 12.63 2.4 20.11 1.76 44.2-24.76 52.1zm33.42-56.65c1.04 9.31-2.94 13.72-5.67 15.62-.12-3.82-.43-7.62-.89-11.31-.54-4.59-1.13-8.99-1.67-12.96l6.97-1.87c.24 1.81.65 5.13 1.26 10.52"
  />
  <path
    fill="#002b11"
    d="m149.585 106.734-13.35-7.7 7.71-13.35 13.34 7.71zm-10.46-8.5 9.67 5.58 5.59-9.67-9.67-5.58z"
  />
</svg>
