<svg
  xmlns="http://www.w3.org/2000/svg"
  width="235"
  height="235"
  style="width: 100%; height: 100%"
  viewBox="0 0 235 235"
>
  <path
    fill="#fff"
    d="M234.284 117.257c0 4.98-9.45 9.08-10.26 13.85-.83 4.87 6.81 11.55 5.55 16.23-1.27 4.77-11.23 6.75-12.93 11.3-1.71 4.56 4.4 12.92 1.95 17.13-2.46 4.26-12.7 3.09-15.83 6.85-3.12 3.77.13 13.39-3.32 16.85-3.44 3.45-13.08.2-16.85 3.32-3.76 3.13-2.59 13.37-6.85 15.83-4.21 2.45-12.51-3.68-17.13-1.95-4.55 1.68-6.53 11.66-11.3 12.93-4.68 1.26-11.36-6.38-16.23-5.55-4.77.81-8.89 10.26-13.85 10.26s-9.09-9.45-13.85-10.26c-4.77-.81-11.56 6.81-16.24 5.55-4.76-1.27-6.74-11.23-11.3-12.93-4.62-1.71-12.91 4.4-17.13 1.95-4.25-2.46-3.08-12.7-6.85-15.83-3.76-3.12-13.38.13-16.85-3.32-3.45-3.44-.19-13.08-3.32-16.85-3.13-3.76-13.36-2.59-15.83-6.85-2.45-4.21 3.68-12.51 1.96-17.13-1.68-4.55-11.66-6.53-12.94-11.3-1.28-4.76 6.38-11.36 5.55-16.23-.8-4.77-10.25-8.9-10.25-13.85 0-4.96 9.45-9.09 10.25-13.85.81-4.77-6.8-11.56-5.55-16.24 1.28-4.76 11.24-6.74 12.94-11.3 1.7-4.55-4.41-12.91-1.96-17.13 2.47-4.25 12.7-3.08 15.83-6.85 3.13-3.76-.13-13.38 3.32-16.85s13.09-.19 16.85-3.32c3.77-3.13 2.6-13.36 6.85-15.83 4.26-2.47 12.51 3.68 17.13 1.96 4.56-1.68 6.54-11.66 11.3-12.94 4.68-1.25 11.36 6.38 16.24 5.55 4.87-.83 8.89-10.25 13.85-10.25s9.08 9.45 13.85 10.25c4.87.83 11.55-6.8 16.23-5.55 4.77 1.28 6.75 11.24 11.3 12.94s12.92-4.4 17.13-1.96c4.21 2.45 3.09 12.7 6.85 15.83 3.77 3.13 13.38-.13 16.85 3.32 3.45 3.45.2 13.09 3.32 16.85 3.13 3.77 13.37 2.6 15.83 6.85 2.47 4.26-3.68 12.52-1.95 17.13 1.68 4.56 11.66 6.54 12.93 11.3 1.28 4.77-6.38 11.36-5.55 16.24.81 4.76 10.26 8.89 10.26 13.85"
  />
  <path
    fill="#fff"
    d="M224.464 117.247c0 4.56-8.66 8.32-9.4 12.71-.77 4.46 6.23 10.59 5.08 14.87s-10.3 6.17-11.85 10.34 4.04 11.83 1.81 15.7-11.64 2.83-14.51 6.28.13 12.26-3.04 15.43-11.98.17-15.43 3.04-2.36 12.25-6.28 14.51c-3.91 2.26-11.47-3.36-15.7-1.81s-6 10.68-10.34 11.85c-4.28 1.15-10.41-5.85-14.87-5.08-4.47.76-8.15 9.4-12.71 9.4-4.55 0-8.32-8.66-12.7-9.4-4.47-.77-10.6 6.23-14.87 5.08-4.36-1.17-6.17-10.3-10.34-11.85s-11.83 4.04-15.71 1.81c-3.89-2.26-2.83-11.64-6.27-14.51-3.45-2.87-12.26.13-15.43-3.04s-.17-11.98-3.04-15.43-12.26-2.36-14.51-6.28c-2.24-3.87 3.36-11.47 1.81-15.7-1.56-4.17-10.69-6-11.86-10.34-1.14-4.28 5.86-10.41 5.09-14.87-.77-4.47-9.41-8.15-9.41-12.71 0-4.55 8.66-8.32 9.41-12.7.74-4.38-6.23-10.59-5.09-14.87 1.15-4.28 10.3-6.17 11.86-10.34 1.55-4.17-4.05-11.83-1.81-15.71 2.23-3.87 11.64-2.83 14.51-6.27 2.87-3.45-.13-12.26 3.04-15.43s11.98-.17 15.43-3.04c3.44-2.87 2.36-12.26 6.27-14.51 3.88-2.24 11.47 3.36 15.71 1.81 4.17-1.56 6-10.69 10.34-11.86 4.27-1.15 10.4 5.85 14.87 5.09 4.47-.77 8.15-9.41 12.7-9.41 4.56 0 8.32 8.66 12.71 9.41 4.46.76 10.59-6.24 14.87-5.09 4.36 1.17 6.17 10.3 10.34 11.86 4.17 1.55 11.83-4.05 15.7-1.81 3.9 2.25 2.83 11.64 6.28 14.51s12.26-.13 15.43 3.04.17 11.98 3.04 15.43c2.87 3.44 12.25 2.36 14.51 6.27 2.26 3.92-3.36 11.47-1.81 15.71 1.55 4.23 10.68 6 11.85 10.34 1.15 4.28-5.85 10.4-5.08 14.87.74 4.38 9.4 8.15 9.4 12.7"
  />
  <path
    fill="#002b11"
    d="M117.254 225.537c-2.88 0-5.24-2.6-7.54-5.13-1.78-1.96-3.63-4-5.36-4.3-1.81-.32-4.25 1.11-6.64 2.47-2.81 1.62-5.72 3.3-8.34 2.59-2.66-.72-4.38-3.66-6.02-6.51-1.36-2.34-2.74-4.76-4.42-5.38-1.69-.62-4.35.23-6.92 1.04-3.21 1.02-6.53 2.09-8.96.68-2.44-1.42-3.19-4.83-3.89-8.12-.58-2.62-1.15-5.35-2.51-6.47-1.39-1.15-4.19-1.17-6.92-1.17-3.27 0-6.66 0-8.57-1.94-1.94-1.94-1.94-5.32-1.94-8.57 0-2.73 0-5.54-1.17-6.92-1.13-1.36-3.85-1.94-6.47-2.51-3.3-.72-6.72-1.45-8.13-3.89-1.4-2.43-.34-5.75.69-8.94.83-2.58 1.66-5.24 1.04-6.92-.62-1.66-3.04-3.06-5.38-4.42-2.86-1.64-5.79-3.36-6.52-6.02-.7-2.62.98-5.53 2.6-8.34 1.36-2.39 2.79-4.83 2.47-6.64-.3-1.7-2.32-3.56-4.3-5.36-2.51-2.3-5.13-4.66-5.13-7.51 0-2.86 2.6-5.24 5.13-7.54 1.96-1.78 4-3.64 4.3-5.34.3-1.81-1.11-4.25-2.47-6.64-1.62-2.8-3.3-5.72-2.6-8.34.71-2.66 3.66-4.38 6.52-6.02 2.34-1.36 4.76-2.74 5.38-4.43.62-1.68-.24-4.33-1.04-6.91-1.03-3.21-2.09-6.53-.69-8.96 1.43-2.45 4.83-3.19 8.13-3.89 2.62-.58 5.34-1.15 6.47-2.51 1.15-1.38 1.17-4.19 1.17-6.92 0-3.27 0-6.66 1.94-8.57 1.93-1.94 5.32-1.94 8.57-1.94 2.73 0 5.53 0 6.92-1.17 1.36-1.13 1.96-3.85 2.51-6.47.72-3.29 1.45-6.72 3.89-8.13 2.43-1.4 5.75-.34 8.96.69 2.57.8 5.23 1.68 6.92 1.04 1.65-.62 3.06-3.04 4.42-5.39 1.64-2.85 3.36-5.78 6.02-6.51 2.62-.68 5.53.98 8.34 2.6 2.39 1.36 4.81 2.79 6.64 2.47 1.7-.3 3.56-2.32 5.36-4.3 2.3-2.51 4.66-5.13 7.54-5.13 2.87 0 5.23 2.6 7.53 5.13 1.79 1.96 3.64 4 5.34 4.3 1.81.32 4.25-1.11 6.64-2.47 2.81-1.62 5.72-3.28 8.34-2.6 2.66.71 4.36 3.66 6.02 6.51 1.36 2.35 2.74 4.77 4.43 5.39 1.68.62 4.34-.24 6.91-1.04 3.21-1.03 6.51-2.09 8.96-.69 2.45 1.43 3.19 4.84 3.89 8.13.58 2.62 1.15 5.34 2.51 6.47 1.39 1.15 4.19 1.17 6.92 1.17 3.28 0 6.66 0 8.57 1.94 1.94 1.93 1.94 5.32 1.94 8.57 0 2.73 0 5.54 1.17 6.92 1.13 1.36 3.85 1.96 6.47 2.51 3.3.72 6.72 1.44 8.13 3.89 1.4 2.43.34 5.75-.68 8.96-.83 2.58-1.66 5.23-1.05 6.91.62 1.66 3.05 3.07 5.39 4.43 2.85 1.64 5.78 3.36 6.51 6.02.7 2.62-.98 5.51-2.6 8.34-1.36 2.39-2.79 4.83-2.47 6.64.3 1.7 2.32 3.56 4.3 5.36 2.51 2.3 5.13 4.66 5.13 7.54 0 2.87-2.6 5.23-5.13 7.51-1.96 1.78-4 3.64-4.3 5.36-.3 1.81 1.11 4.25 2.47 6.64 1.62 2.81 3.3 5.72 2.6 8.34-.71 2.66-3.66 4.36-6.51 6.02-2.34 1.36-4.77 2.75-5.39 4.43-.61 1.68.24 4.34 1.05 6.91 1.02 3.21 2.08 6.53.68 8.96-1.43 2.45-4.83 3.19-8.13 3.89-2.62.58-5.34 1.15-6.47 2.51-1.15 1.39-1.15 4.2-1.17 6.92 0 3.28 0 6.64-1.94 8.57-1.93 1.94-5.32 1.94-8.57 1.94-2.73 0-5.53 0-6.92 1.17-1.36 1.13-1.95 3.85-2.51 6.47-.72 3.3-1.44 6.72-3.89 8.13-2.43 1.4-5.75.34-8.96-.68-2.57-.83-5.23-1.66-6.91-1.05-1.66.62-3.07 3.05-4.43 5.39-1.64 2.85-3.36 5.78-6.02 6.51-2.6.68-5.51-.98-8.34-2.6-2.39-1.36-4.83-2.79-6.64-2.47-1.7.3-3.55 2.32-5.36 4.3-2.3 2.51-4.66 5.13-7.54 5.13zm-13.41-11.6c.3 0 .6.02.87.06 2.43.43 4.54 2.73 6.58 4.96 1.98 2.17 4.02 4.43 5.93 4.43 1.92 0 3.98-2.26 5.96-4.43 2.05-2.23 4.13-4.55 6.58-4.96 2.57-.44 5.36 1.17 8.06 2.73 2.45 1.4 4.96 2.87 6.73 2.38 1.8-.49 3.29-3.04 4.72-5.51 1.55-2.66 3.15-5.43 5.53-6.3 2.36-.87 5.38.09 8.3 1.02 2.77.9 5.64 1.79 7.23.88 1.64-.94 2.28-3.9 2.9-6.75.64-2.98 1.32-6.04 3.23-7.66 1.98-1.64 5.17-1.66 8.28-1.66 2.83 0 5.76 0 7.08-1.32s1.32-4.25 1.32-7.08c0-3.11 0-6.3 1.66-8.28 1.6-1.92 4.68-2.6 7.66-3.23 2.85-.62 5.81-1.26 6.75-2.9.93-1.62 0-4.47-.87-7.23-.94-2.92-1.9-5.94-1.03-8.3.88-2.38 3.64-3.98 6.3-5.53 2.47-1.43 5.02-2.92 5.51-4.73.47-1.76-.98-4.29-2.38-6.72-1.55-2.7-3.17-5.49-2.72-8.06.4-2.43 2.72-4.54 4.95-6.58 2.17-1.98 4.43-4.02 4.43-5.94 0-1.91-2.26-3.98-4.43-5.95-2.23-2.05-4.55-4.13-4.95-6.58-.45-2.57 1.17-5.36 2.72-8.06 1.4-2.45 2.85-4.96 2.38-6.73-.49-1.8-3.04-3.3-5.51-4.72-2.66-1.53-5.42-3.13-6.3-5.53-.87-2.36.09-5.39 1.03-8.3.89-2.77 1.78-5.62.87-7.24-.94-1.63-3.9-2.27-6.75-2.89-2.98-.64-6.04-1.32-7.66-3.23-1.64-1.98-1.66-5.17-1.66-8.28 0-2.83 0-5.77-1.32-7.08-1.32-1.32-4.25-1.33-7.08-1.33-3.11 0-6.3.01-8.28-1.65-1.91-1.6-2.59-4.69-3.23-7.66-.62-2.86-1.26-5.81-2.9-6.75-1.61-.93-4.46 0-7.23.87-2.92.94-5.94 1.9-8.3 1.02-2.38-.89-3.98-3.63-5.53-6.29-1.43-2.47-2.92-5.03-4.72-5.51-1.77-.47-4.28.97-6.73 2.38-2.7 1.55-5.49 3.17-8.06 2.72-2.43-.42-4.53-2.72-6.58-4.96-1.98-2.17-4.02-4.42-5.96-4.42-1.93 0-3.97 2.25-5.95 4.42-2.05 2.24-4.13 4.54-6.58 4.96-2.57.45-5.36-1.17-8.06-2.72-2.45-1.41-4.96-2.85-6.73-2.38-1.8.48-3.29 3.04-4.72 5.51-1.55 2.66-3.15 5.42-5.53 6.29-2.36.88-5.38-.08-8.3-1.02-2.77-.87-5.62-1.78-7.23-.87-1.64.94-2.28 3.89-2.9 6.75-.64 2.97-1.32 6.04-3.23 7.66-1.98 1.63-5.17 1.65-8.28 1.65-2.83 0-5.76.01-7.08 1.33-1.32 1.31-1.32 4.25-1.32 7.08 0 3.11 0 6.3-1.66 8.28-1.6 1.91-4.69 2.59-7.66 3.23-2.85.62-5.81 1.26-6.75 2.89-.93 1.62 0 4.47.87 7.24.94 2.91 1.9 5.94 1.03 8.3-.9 2.38-3.64 3.98-6.3 5.53-2.47 1.42-5.02 2.92-5.51 4.72-.47 1.77.98 4.28 2.38 6.73 1.55 2.7 3.17 5.49 2.72 8.06-.4 2.43-2.72 4.53-4.95 6.58-2.17 1.97-4.43 4.02-4.43 5.95 0 1.94 2.26 3.98 4.43 5.94 2.23 2.04 4.55 4.13 4.95 6.58.45 2.57-1.17 5.36-2.72 8.06-1.4 2.45-2.85 4.96-2.38 6.72.49 1.81 3.04 3.3 5.51 4.73 2.66 1.53 5.42 3.12 6.3 5.53.87 2.36-.09 5.38-1.03 8.3-.89 2.76-1.78 5.61-.87 7.23.94 1.64 3.9 2.28 6.75 2.9 2.97.63 6.04 1.31 7.66 3.23 1.64 1.98 1.66 5.17 1.66 8.28 0 2.83 0 5.76 1.32 7.08s4.25 1.32 7.08 1.32c3.11 0 6.3 0 8.28 1.66 1.91 1.6 2.59 4.68 3.23 7.66.62 2.85 1.26 5.81 2.9 6.75 1.61.93 4.46 0 7.23-.88 2.92-.93 5.94-1.89 8.3-1.02 2.38.9 3.98 3.64 5.53 6.3 1.43 2.47 2.92 5.02 4.72 5.51 1.77.47 4.28-.98 6.73-2.38 2.38-1.39 4.85-2.81 7.17-2.81z"
  />
  <path
    fill="#b2ff1a"
    d="m160.684 72.857-45.54-17.2-33.36 35.43 21.28 92.05 78.9-18.24zm-38.45 13.27c-2.38.56-4.77-.93-5.32-3.32-.55-2.38.94-4.76 3.32-5.32 2.38-.55 4.77.94 5.32 3.32.55 2.39-.94 4.77-3.32 5.32"
  />
  <path
    fill="#002b11"
    d="m144.994 102.657-35.26 56.11 12.43 7.75 35.26-56.09zm19.64 42.45c-3.74-13.92-23.96-9.26-21.21 4.89 3.72 13.96 24.02 9.17 21.21-4.89m-49.47-12.89c13.92-3.75 9.26-23.96-4.89-21.22-13.98 3.79-9.19 23.98 4.89 21.22"
  />
  <path
    fill="#002b11"
    d="m161.574 72.057-25.92-9.78c.45-12.03-11.1-22.3-22.97-20.54-10.26 1.26-18.11 10.15-17.98 20.47l-23.94 9.34-19.47 88.9 47.85 10.49 3.11 13.47 80.98-18.72-21.64-93.65zm-48.64-28.19c10.34-1.53 20.51 7.13 20.6 17.62l-18.64-7.02-.07-.09-17.98 7.02c.35-8.93 7.18-16.42 16.09-17.53m-39.41 106.22c-2.44-.49-4.15-3.11-3.55-5.56l8.47-38.68c.49-2.25 2.55-3.76 4.81-3.64l12.17 52.67zm9.41-58.68 32.49-34.5 18.04 6.81c-.51 5.81-3.78 10.96-8.61 13.96-3.79-3.51-10.26.28-8.96 5.36 2.21 7.83 13.55 3.71 10.25-3.66 5.13-3.27 8.64-8.72 9.36-14.89l24.26 9.15 20.92 90.47-76.84 17.77zm41.32-10.96c2 4.57-5.28 6.85-6.32 1.96 2.26-.3 4.38-.98 6.32-1.96m-5.94-.28c.79-1.55 2.9-2.19 4.41-1.32-1.38.62-2.85 1.07-4.41 1.32"
  />
</svg>
