<svg
  xmlns="http://www.w3.org/2000/svg"
  width="235"
  height="235"
  style="width: 100%; height: 100%"
  viewBox="0 0 235 235"
>
  <path
    fill="#fff"
    d="M151.029.488h-67.05c-10.33 0-20.24 4.11-27.54 11.41l-44.54 44.54a38.96 38.96 0 0 0-11.41 27.54v67.05c0 10.33 4.11 20.24 11.41 27.54l44.54 44.54c7.3 7.3 17.21 11.41 27.54 11.41h67.05c10.32 0 20.24-4.11 27.54-11.41l44.54-44.54c7.3-7.3 11.41-17.21 11.41-27.54v-67.05c0-10.33-4.11-20.24-11.41-27.54l-44.54-44.54a38.98 38.98 0 0 0-27.54-11.41"
  />
  <path
    fill="#fff"
    d="M147.839 11.638h-60.65c-9.34 0-18.3 3.71-24.92 10.32l-40.31 40.31a35.32 35.32 0 0 0-10.32 24.92v60.65c0 9.34 3.71 18.3 10.32 24.92l40.31 40.31c6.6 6.62 15.58 10.32 24.92 10.32h60.65c9.34 0 18.3-3.7 24.92-10.32l40.31-40.31c6.6-6.6 10.32-15.58 10.32-24.92v-60.65c0-9.34-3.7-18.3-10.32-24.92l-40.31-40.31a35.32 35.32 0 0 0-24.92-10.32"
  />
  <path
    fill="#002b11"
    d="M147.839 224.428h-60.65c-9.71 0-18.81-3.77-25.67-10.64l-40.3-40.31c-6.86-6.85-10.64-15.96-10.64-25.66v-60.65c0-9.71 3.76-18.82 10.64-25.67l40.28-40.28c6.85-6.86 15.98-10.64 25.67-10.64h60.65c9.7 0 18.81 3.76 25.66 10.64l40.31 40.3c6.85 6.86 10.64 15.96 10.64 25.67v60.65c0 9.7-3.77 18.81-10.64 25.67l-40.31 40.3c-6.85 6.85-15.96 10.64-25.66 10.64zm-60.65-211.73c-9.13 0-17.71 3.56-24.16 10.01l-40.3 40.3c-6.45 6.45-10 15.03-10 24.16v60.65c0 9.13 3.55 17.7 10 24.15l40.3 40.31c6.45 6.45 15.03 10 24.16 10h60.65c9.13 0 17.71-3.55 24.15-10l40.31-40.31c6.45-6.45 10-15.02 10-24.15v-60.65c0-9.13-3.55-17.71-10-24.16l-40.31-40.3c-6.44-6.45-15.04-10.01-24.15-10.01z"
  />
  <path
    fill="#b2ff1a"
    d="M181.739 170.058h-16.66v16.64h-11.36v-16.64h-16.65v-11.37h16.65v-16.64h11.36v16.64h16.66z"
  />
  <path
    fill="#002b11"
    d="m108.989 129.938.49.28.51-.25c.21-.11 20.68-10.52 33.98-28.44 10.98-15 12.34-21.41 12.94-23.21-.87-.32-8.6-6.43-5.64-16.5l-16.17-9.94c-.64 1.66-4.92 8.75-13.52 4.96-.59 1.34-6.36 16.47-26.45 34.33-9.19 8-20.24 14.56-21.28 15.19 1.24 1.73 3.87 7.3-2.34 11.73l19 11.94c.47-.21 9.52-5 18.46-.13zm3.1-39.94c12.71-11.75 25.88.06 13.56 12.87-13.19 11.71-26.24-.57-13.56-12.87"
  />
  <path
    fill="#002b11"
    d="m166.149 156.608 19.68-10.98-23.22-14.2 22.12-12.34-31.46-19.24c7.39-11.04 11.69-23.19 13.2-36.79l-44.61-27.41c-3.85 23.17-21.73 49.03-49.97 64.86-9.85 5.6-20.45 10.71-22.7 11.83l23.15 14.6-22.24 12.03 22.92 14.74-21.79 11.79 45.97 29.59 42.96-24.01h12.5v16.64h13.49v-16.64h16.66v-13.49h-16.66v-1zm15.47-11.07-15.47 8.64v-13.19h-.07l.09-.07-9.71-6.04 4.03-2.23 21.13 12.91zm-128.07-32.96c34.3-15.83 61.69-38.35 69.82-73.53l40.84 25.11c-3.92 38.18-35.54 61.25-64.8 77.34zm76.93 15.75c.19 6.64-10.94 10.36-17.83 7.72 5.38-3.34 11.57-7.38 16.68-11.26.72 1.09 1.13 2.26 1.13 3.52zm-76.19 10.81 20.11-10.88 3.62 2.28-6.11 3.28c3.66 5.1-.08 8.81-1.61 10l19.43 12.26c8.42-5.69 16.53-.68 17.17 0l55.93-31.31c-3.9-5.66.32-9.36 2-10.51l-15.13-9.43c.83-1.06 1.61-2.13 2.36-3.21l28.43 17.39-84.36 47.09-41.86-26.94zm77.3 15.72c-.05 8.37-15.18 11.05-21.56 5.9l19.28-10.77c1.4 1.38 2.28 3.04 2.28 4.85zm4.42 16.14-38.73 21.62-41.86-26.95 19.67-10.64 3.57 2.3-5.62 3c3.66 5.11-.08 8.81-1.62 10.01l19.43 12.25c8.43-5.68 16.54-.68 17.18 0l28-15.55v3.91zm44.67-11.26v9.23h-16.66v16.65h-9.24v-16.65h-16.64v-9.23h16.64v-16.64h9.24v16.64z"
  />
</svg>
