<svg xmlns="http://www.w3.org/2000/svg" fill="none" viewBox="0 0 90 16">
  <path
    fill="#002b11"
    d="M8.43 9.239c0 1.197-.989 2.168-2.207 2.168-1.22 0-2.207-.971-2.207-2.168S5.004 7.07 6.223 7.07s2.207.971 2.207 2.17m10.232-2.17c-1.219 0-2.207.971-2.207 2.169s.988 2.168 2.207 2.168 2.207-.971 2.207-2.168-.988-2.167-2.206-2.168m6.223 2.169c0 3.374-2.787 6.11-6.223 6.11a6.26 6.26 0 0 1-4.225-1.627l-1.992 2.129-1.992-2.131a6.26 6.26 0 0 1-4.227 1.628c-3.433 0-6.22-2.735-6.22-6.11a6.05 6.05 0 0 1 2.03-4.515L0 2.548h4.522a14.3 14.3 0 0 1 15.858 0h4.51l-2.035 2.175a6.04 6.04 0 0 1 2.03 4.516m-14.452 0c0-2.284-1.885-4.135-4.209-4.135S2.015 6.955 2.015 9.239s1.885 4.134 4.21 4.134c2.323 0 4.208-1.85 4.208-4.134m6.682-6.174a12.35 12.35 0 0 0-9.342 0c2.658 1 4.672 3.333 4.672 6.054 0-2.72 2.014-5.055 4.67-6.053m5.757 6.173c0-2.283-1.885-4.135-4.209-4.135s-4.209 1.852-4.209 4.135c0 2.284 1.885 4.135 4.209 4.135s4.209-1.851 4.209-4.135M29 2.427h4.296c2.38.03 4.2 1.64 3.777 4.125a3.14 3.14 0 0 1-1.865 2.353l-.002.021 2.256 4.513h-2.335l-2.072-4.106h-1.872l-.023.024v4.082H29zm2.16 1.91v3.11c0 .014.039.029.055.025 1.185-.07 3.39.39 3.696-1.24.212-1.13-.555-1.828-1.632-1.895zm50.9-1.926V13.44h-2.096v-.684a4.2 4.2 0 0 1-2.088.811c-2.995.274-5.287-2.538-4.443-5.406.773-2.627 3.882-3.83 6.242-2.382.096.06.168.117.289.212V2.41zm-2.094 6.963a2.29 2.29 0 0 0-2.297-2.285 2.29 2.29 0 0 0-2.297 2.285 2.29 2.29 0 0 0 2.297 2.285 2.29 2.29 0 0 0 2.297-2.285M48.42 5.292l1.248 5.49 1.343-5.49 2.016.007 1.367 5.483 1.24-5.49h2.096l-2.184 8.148-2.231-.002-1.296-5.25-1.28 5.25H48.5l-2.177-8.146zm16.188.684V5.29h2.095v8.147h-2.095v-.684a4.2 4.2 0 0 1-1.632.74c-2.87.588-5.413-1.82-5.036-4.692.38-2.894 3.597-4.546 6.183-3.132zm-.002 3.4A2.29 2.29 0 0 0 62.31 7.09a2.29 2.29 0 0 0-2.298 2.286 2.29 2.29 0 0 0 2.297 2.287 2.29 2.29 0 0 0 2.298-2.287m-18.619.594h-6.142c.071.973.716 1.742 1.706 1.876.979.132 1.974-.253 2.293-1.24h2.063c-.335 1.468-1.375 2.536-2.86 2.86-2.345.512-4.672-.625-5.21-3.034-.671-3.006 1.632-5.64 4.733-5.233 1.829.24 3.076 1.536 3.35 3.334.073.476.07.955.067 1.437m-2.08-1.575a1.89 1.89 0 0 0-1.404-1.508c-1.175-.3-2.285.336-2.563 1.508zm26.426-3.103v1.32s.139-.457.3-.687c.136-.19.312-.349.527-.456.546-.272 1.207-.15 1.797-.177v1.925h-1.144c-.65.014-1.263.248-1.433.929-.013.05-.046.3-.046.507v4.786h-2.112V5.292zM89.453 7.74h-2.044c.027-.836-.987-1.116-1.63-.804-.35.17-.552.635-.23.932.35.322 1.778.592 2.303.758 1.184.374 1.874 1.14 1.792 2.43-.204 3.213-5.588 3.379-6.335.44a4 4 0 0 1-.1-.814h2.06c-.016.459.17.907.6 1.111.552.26 1.611.122 1.73-.596.105-.645-.62-.859-1.104-1.012-1.285-.405-2.933-.61-3.14-2.264-.342-2.724 3.423-3.465 5.202-2.112.6.457.94 1.172.896 1.93"
  />
</svg>
